<svg id="Capa_1" data-name="Capa 1" xmlns="http://www.w3.org/2000/svg" viewBox="0 0 1200 1200"><defs><style>.cls-1{fill:#8c8b8b;}</style></defs><title>ascensor</title><path class="cls-1" d="M180,654.35V257.55c0-9,5.83-15.74,14.78-16,13.29-.4,26.6-.24,39.9-.25,60.14,0,120.29-.11,180.43.16,6.5,0,10-1.41,13.33-7.56,16.61-30.69,40.23-55,70.09-73.07a189.2,189.2,0,0,1,87.11-27.68c58.05-3.7,108.26,14.61,150.44,54.54a184.76,184.76,0,0,1,38.07,50.89c1.07,2.11,2.34,2.78,4.7,2.78q63.12-.09,126.23,0c32.67,0,65.33.13,98-.05,10.74-.06,16.91,8.22,16.9,17.48q-.25,175.72-.11,351.45v440.69c0,9.68-6.55,16.33-16.2,16.34q-76.09,0-152.2,0a15.26,15.26,0,0,1-11.76-5.24q-32.18-35.64-64.22-71.38a9.16,9.16,0,0,0-7.52-3.37q-77.38.23-154.79.24c-19.57,0-39.15-.19-58.72-.18q-62.29,0-124.6.28a6.61,6.61,0,0,0-4.36,2q-32.36,35.67-64.52,71.54a17.3,17.3,0,0,1-13.65,6.15q-75.13-.12-150.26,0c-10.77,0-17.07-6.34-17.07-17.1q0-123.32,0-246.62ZM788.13,272.72c.36,1.43.57,2.37.82,3.3a206.08,206.08,0,0,1,7.24,51.18c.24,10.11-7.46,17.33-17.12,17.2-25.2-.36-50.41-.13-75.61-.13H437c-6.16,0-12.33.11-18.49,0-8-.19-15-6.82-14.59-14.78.61-12.06,1.66-24.12,3.13-36.11.84-6.89,2.89-13.63,4.42-20.54H211.26v763.1H332.84v-3.5q0-19.16,0-38.29,0-99.11,0-198.22,0-88.26.08-176.52,0-86.32-.08-172.65c0-11.77.29-23.55.12-35.32-.14-10.41,6.19-17.23,16.6-17.25,7,0,14.06,0,21.08,0q111.12,0,222.25,0,81.45,0,162.9.12c31.48,0,63-.08,94.44-.08,10.31,0,16.6,6.18,16.83,16.42,0,1.52,0,3,0,4.55q0,80.81,0,161.61,0,100.77,0,201.53,0,127,0,254.1c0,1.15.11,2.3.17,3.47H988.58V272.72ZM584.21,956.41V425.6H364.29v585c.92-.86,1.34-1.18,1.69-1.57,13.74-15.27,27.54-30.48,41.17-45.84a18.9,18.9,0,0,1,15.05-6.81q74.48.11,149,0Zm31.39,0h4.15q54.51,0,109,0c16.32,0,32.65.36,49,.16,6-.08,10.64,1.76,14.58,6.18q17.56,19.74,35.31,39.34c2.46,2.74,5,5.41,7.9,8.52V425.53H615.6ZM584.38,313v-3.67q0-35.19,0-70.4c0-9.14,6.82-16.21,15.49-16.12,8.94.09,15.61,6.92,15.61,16q0,35.35,0,70.73v3.36H764.1c-6.77-79-75.76-154-173.2-148.9-91,4.76-149.78,78.51-155,149Z"/></svg>