<svg id="Capa_1" data-name="Capa 1" xmlns="http://www.w3.org/2000/svg" viewBox="0 0 1200 1200"><defs><style>.cls-1{fill:#8c8b8b;}</style></defs><title>iconocasa</title><path class="cls-1" d="M215.15,130.85c21.59,6.1,43.11,12.46,64.78,18.25q197,52.6,394,105c17.9,4.77,19.73,7.29,19.73,26.09,0,21.37.23,42.75-.13,64.11-.12,6.55,1.54,9.32,8.44,11q141.63,34.95,283.08,70.6c19.63,4.9,21.62,7.32,21.62,27.34V1038h62.45v31.15H130.85V1038H193.3v-13.13q0-435.45-.14-870.89c0-9.94,1.86-18,11-23.13ZM303,1037.44c0-55.73,0-110.37,0-165,0-17.79,4.31-22.13,22.14-22.14q118.17,0,236.34,0c18.86,0,22.83,4.07,22.84,23.36q0,76.49,0,153v10.62H662V283.39L225,166.85v870.59ZM975.14,455.75,694.36,385.53v651.64h61.87v-10.8q0-61.39,0-122.77c0-17.2,4.66-22,21.58-22q56.34-.06,112.69,0c17.79,0,22.39,4.54,22.4,22.08q0,61.84,0,123.69v9.86h62.22ZM552.39,1037.49V882.26H459.67v155.23ZM334.9,882.08v155.11h92.28V882.08Zm546.3,31.55h-93v123.66h93Z"/><path class="cls-1" d="M365.14,412.45c-9.46,0-18.92.19-28.37-.05-12.23-.31-18.12-5.91-18.29-18q-.42-28.82,0-57.66c.16-12.25,5.86-18.11,18-18.29q28.83-.41,57.66,0c12.25.15,18.12,5.85,18.3,17.94q.42,28.83,0,57.66c-.16,12.51-6.09,18.1-18.87,18.36C384.06,412.6,374.6,412.45,365.14,412.45Zm-14.6-62.39v30.4H380.3v-30.4Z"/><path class="cls-1" d="M568.77,365.5c0,9.77.16,19.53,0,29.29-.23,11.14-5.77,17.31-16.79,17.52q-30.2.57-60.4,0c-11.11-.24-16.35-6.22-16.44-17.68q-.24-29.28,0-58.57c.1-11.7,5.61-17.38,17.52-17.56q29.28-.44,58.57,0c11.65.19,17.31,6.17,17.54,17.73C568.92,346,568.77,355.74,568.77,365.5ZM537,380.64V350.49H506.86v30.15Z"/><path class="cls-1" d="M364.83,662.44c-9.76,0-19.53.15-29.29,0-10.68-.22-16.75-5.59-17-16.25q-.61-30.64,0-61.31c.24-10.55,6.41-15.91,17.21-16q29.74-.26,59.49,0c10.62.1,16.76,5.64,17,16.24q.63,30.64,0,61.32c-.24,10.59-6.39,15.68-17.21,16h-30.2Zm15.5-31.55V600.47h-30v30.42Z"/><path class="cls-1" d="M365,787.51c-9.76,0-19.53.2-29.29,0-10.93-.28-16.89-5.46-17.11-16.07q-.66-30.64,0-61.31c.21-10.45,6.42-16.15,17.06-16.29q29.73-.4,59.48,0c11,.15,17,6.05,17.2,17.14q.53,29.75,0,59.49c-.2,11.31-5.93,16.75-17.14,17C385.13,787.72,375.05,787.51,365,787.51Zm-14.67-32.14h30.12V725.44H350.32Z"/><path class="cls-1" d="M366,443.82c10.06,0,20.14-.23,30.19.06,9.75.29,15.8,5.51,16,15.18q.74,31.56,0,63.13c-.23,9.48-6.52,15.09-16.14,15.23q-30.66.47-61.32,0c-9.92-.16-15.91-6.13-16.11-16.27-.4-20.43-.43-40.88,0-61.31.23-10.65,6.2-15.77,17.16-16,10.06-.21,20.13-.05,30.2-.05Zm-15.62,62.06h30.15V475.8H350.33Z"/><path class="cls-1" d="M521.5,662.43c-10.07,0-20.14.2-30.2-.06s-16-5.83-16.13-15.93q-.41-30.66,0-61.32c.12-10.51,6-16.18,16.76-16.28q29.74-.27,59.5,0c11.05.09,17.16,6,17.29,16.89q.36,29.74,0,59.49c-.12,11.11-6,16.95-17,17.17C541.64,662.6,531.57,662.44,521.5,662.43ZM536.94,631V600.67H507.08V631Z"/><path class="cls-1" d="M475.07,740.4c0-10.07-.19-20.14.07-30.2S481.06,694,491,693.85q30.64-.55,61.31,0c10.3.17,16.23,6.52,16.36,17q.34,29.74,0,59.49c-.12,11.14-5.85,17-17,17.11q-29.75.39-59.49,0c-11.78-.15-17-5.74-17.13-17.77C474.94,759.92,475.06,750.16,475.07,740.4Zm61.77,15.29V725.5H507v30.19Z"/><path class="cls-1" d="M475.07,490.29c0-10.06-.19-20.14.06-30.2.26-10.3,5.64-16,15.82-16.18,20.44-.3,40.89-.27,61.32,0,10.15.12,16.22,5.86,16.38,15.8.33,20.43.3,40.88,0,61.32-.13,9.91-6.18,16.23-16,16.4q-30.64.54-61.31,0c-10.41-.16-15.86-6.31-16.3-16.93,0-.61,0-1.22,0-1.83Q475.05,504.48,475.07,490.29Zm61.71,15.6V475.56H506.91v30.33Z"/><path class="cls-1" d="M896.51,818.87c-9.46,0-18.92.18-28.37-.06-12-.29-17.6-5.57-17.76-17.27q-.4-29.73,0-59.48c.17-11.11,6-16.86,17.19-17q29.73-.4,59.48,0c10.91.18,16.86,6.31,17,17.37q.43,29.28,0,58.56c-.15,12.11-5.92,17.42-18.33,17.86-.6,0-1.22,0-1.83,0Zm-14.42-32h30v-30h-30Z"/><path class="cls-1" d="M818.84,772.11c0,9.76.23,19.53-.05,29.28-.32,11.51-5.55,17.18-16.72,17.36q-30.18.46-60.39,0c-10.56-.17-16.44-6.07-16.6-16.65q-.48-30.2,0-60.4c.19-10.42,6.32-16.42,16.83-16.59q30.18-.48,60.39,0c10.54.19,16.09,6.1,16.44,16.82C819.09,752,818.82,762,818.84,772.11Zm-32,14.9V757.12h-29.9V787Z"/><path class="cls-1" d="M897.62,693.68c-10.07,0-20.14.15-30.2,0-10.9-.2-16.78-5.41-17-16.08q-.56-30.64,0-61.31c.18-10.57,6.21-16.09,16.95-16.19q29.75-.28,59.48,0c10.94.11,17,6,17.22,17.07q.46,29.73,0,59.48c-.18,11.13-6.19,16.8-17.2,17C917.14,693.83,907.38,693.68,897.62,693.68Zm14.83-61.75H882.1v30h30.35Z"/><path class="cls-1" d="M818.84,647.65c0,9.76.26,19.54-.07,29.29-.39,11.26-6,16.61-17.34,16.7q-29.73.24-59.48,0c-10.51-.1-16.67-5.85-16.86-16.37q-.54-30.18,0-60.4c.18-10.92,6.42-16.69,17.49-16.78q29.28-.27,58.57,0c11.68.09,17.15,5.66,17.72,17.4,0,.61,0,1.22,0,1.83v28.37Zm-62.06,14.19h30V631.68h-30Z"/><path class="cls-1" d="M897.78,475.07c9.46,0,18.92-.13,28.37,0,11.74.18,17.78,5.68,18,17.17q.45,29.75,0,59.48c-.18,11-6.4,16.85-17.37,17q-29.75.31-59.49,0c-10.66-.13-16.61-5.78-16.78-16.4q-.51-30.64,0-61.31c.19-10.28,5.94-15.59,16.21-15.85S887.41,475.08,897.78,475.07Zm-15.67,61.82h30.3v-30h-30.3Z"/><path class="cls-1" d="M772.31,475.07c10.06,0,20.14-.19,30.2.07,10.25.27,16,5.57,16.17,15.89q.57,30.64,0,61.31c-.18,10.59-6.18,16.24-16.83,16.36q-29.73.34-59.48,0c-11-.12-17.16-6-17.33-17q-.48-29.73,0-59.48c.17-11.49,6.2-17,18-17.14C752.78,474.94,762.55,475.06,772.31,475.07ZM787,507H756.76V536.9H787Z"/></svg>