<svg id="Capa_1" data-name="Capa 1" xmlns="http://www.w3.org/2000/svg" viewBox="0 0 1200 1200"><defs><style>.cls-1{fill:#8c8b8b;}</style></defs><title>planta</title><g id="WyC8AI"><path class="cls-1" d="M614.39,728.53c.57-48.24.66-94-2.26-139.81-2-30.57-4.35-61.08-7.64-91.52-.51-4.73-2.34-7.4-6.37-9.7-27.27-15.56-52.16-34-70.72-59.84-20.41-28.43-30.88-60.23-33.8-95-3.82-45.41,5.84-89.22,14.1-133.27,3.15-16.82,6.88-33.57,4.42-51-1.2-8.45,6.26-13.57,15.22-11.18,29.62,7.9,55.88,22.39,79.71,41.39,39.24,31.28,67.6,70.25,80.39,119.17,14.12,54,3.53,104-27.34,149.91a224.89,224.89,0,0,1-30.43,36.74c-3.14,3-3.84,6.09-3.39,10.46,4.64,44.6,8.13,89.26,9.71,134.1.94,27,.77,53.91,1,80.86,0,1.59-.73,3.38.91,5,3.54-2.88,3-6.94,3.22-10.71,2.51-36.57,11.15-71.19,33.32-101.23,27.38-37.1,64.95-57.48,109.75-65,48.3-8.08,94.16-.29,137.26,23.15,3.41,1.85,7.14,3.5,8.83,7.42,2.29,5.35,1.59,10.26-3.2,13.81-13.45,10-22.55,23.7-32.17,37-18.51,25.64-36.75,51.49-60,73.27-33.58,31.46-72.45,49.88-119.27,48.53a185.47,185.47,0,0,1-53.36-9.67c-6-2-8.59-.3-11.42,4.94-12.1,22.37-18.32,46-20,71.49-2.47,36.93-8.93,73.43-16.52,109.66-1.18,5.63-.12,8,5.08,11.36,13,8.29,25.6,11,41.55,9.6,30.35-2.68,55.47,9.7,72.45,36,2.13,3.29,4.78,4.52,8.53,4.53,5.92,0,12.13.44,17.27,3,11.76,5.93,23.44,4.14,35.62,2.27,31.27-4.81,66.46,13.85,79.56,41.58a54.46,54.46,0,0,1,5.64,22.65c.18,11.12-3.13,14.76-14.18,14.77-32.6,0-65.22.22-97.82-.22-123.31-1.67-246.63-.92-369.94-1.57-.74,0-1.48,0-2.21,0-26.58,1.48-29-12.57-23.7-31.25,8.27-29.19,29.42-45.47,58.17-50.76,13.52-2.48,25-5.73,35.87-15,12.5-10.66,28.52-15,45.21-14.93,5.78,0,10.14-1.42,14.28-5.71,15.71-16.29,35.78-22.62,57.77-23.37,6.11-.21,8.45-2.21,9.68-8.11A965.64,965.64,0,0,0,611,785.17c1.05-14.24-6-27.14-12.61-39.46-12.56-23.32-29.77-43.05-48.62-61.47-3.3-3.22-6.52-3.47-10.67-2.21a213.51,213.51,0,0,1-52.64,9.56,151.45,151.45,0,0,1-82.54-19.43c-34.93-19.53-59.76-49.39-83-80.95-12.35-16.76-23.2-34.64-37.25-50.14a69.41,69.41,0,0,0-7.93-7.6c-10.33-8.26-9.71-16.2,2.05-22.74a199.93,199.93,0,0,1,56.34-20.83c45.55-9.58,90-6.31,132,14.32,55.12,27.09,82.7,73.62,90.15,133.33.79,6.31,1.26,12.68,1.44,19a12.33,12.33,0,0,0,4.17,9A335.71,335.71,0,0,1,614.39,728.53Zm8.71-268.92c3.7-4.34,6.3-7.23,8.72-10.26,24.88-31.19,40.13-66.11,39.87-106.58-.2-31-9.25-59.69-25.14-86.39-25.18-42.31-60.52-72.67-105.82-91.67-4.35-1.82-6.25-1.29-6.44,3.81-.47,12.52-3.14,24.75-5.5,37-7.46,38.72-15.42,77.33-13.95,117.17,2.18,59.18,28.61,104.23,78.1,136.16,1.76,1.13,3.71,3.42,5.86,2s1-4.1.7-6.19c-5.67-41.5-12.1-82.86-20.73-123.87-1.1-5.26-2.77-10.45-2.61-15.9s2.77-9.5,8.39-10.52,9.49,1.68,11.93,6.52a24.25,24.25,0,0,1,1.64,5.62c8.22,37.33,14.38,75,20,112.83C619.49,438.9,619.93,448.67,623.1,459.61Zm105.64,581v.38c37.74,0,75.47.06,113.21-.08,4.49,0,11.37,2.48,13-1.35,2-4.78-3.24-9.61-6.45-13.88a16.35,16.35,0,0,0-1.49-1.63c-18.12-18.07-39.71-21.93-63.68-15.19-5.89,1.65-11.23,2.38-17-.69a62.63,62.63,0,0,0-35.43-7.35c-6,.52-10.47-2.05-12.77-7.8a47.1,47.1,0,0,0-5.37-10.41c-14.49-20-42.88-28.43-68.67-19.67-7.51,2.54-12.84,1.36-18.53-4.05-25.66-24.44-68-21.16-89.8,6.86-3.95,5.06-8.54,6.76-14.67,6.14-22.3-2.23-41,4.55-55.06,22.53-3.35,4.28-7.67,6.3-12.87,5.25-6-1.21-11.78-.22-17.51.82-17.93,3.24-31.7,12.63-40,29.07-4.2,8.32-3.16,9.69,6,9.72,80.36.3,160.71.08,241.07,1.26C671.4,1041,700.08,1040.61,728.74,1040.61ZM534.87,641.74c-.62-4.69-.92-7.57-1.39-10.43-7.24-43.94-28.13-79-67.06-102-33.14-19.65-69.34-24.68-107-21.32-18.62,1.67-36.59,6.6-54,13.59-4.94,2-7.13,3.82-2.35,8.48,3,2.88,5.25,6.46,7.76,9.78,21.71,28.67,40.72,59.42,66.63,84.84,39.62,38.87,85.92,54,140.51,40.57,2-.49,4.94-.33,5.34-3,.31-2.1-2.07-3.16-3.56-4.34a715,715,0,0,0-98.86-66.09c-5.15-2.83-10.45-5.46-15.29-8.76-5.36-3.64-6.71-10-3.51-14.85,3.48-5.31,8.42-6.3,14.13-3.85,2,.87,4,1.86,5.93,2.92a763.44,763.44,0,0,1,88.07,55.81C518.05,628.84,525.74,634.81,534.87,641.74Zm131.6,35.94a14,14,0,0,0,2.67-1c5.13-4.56,10.12-9.28,15.35-13.71a310.33,310.33,0,0,1,108.82-59.69c8.25-2.59,13.83-.06,15.7,6.23,2,6.82-1.29,12.24-9.47,14.7-22.22,6.66-43,16.58-62.89,28.26a255,255,0,0,0-62.4,50.94c-2.48,2.79-7.39,6.72.5,8.94,32.23,9.05,64.28,10,95.83-3,32.57-13.44,56.61-37.46,77.95-64.35,16.6-20.91,31.8-42.92,48.13-64,3.89-5,3.74-6.49-2.09-8.92a191.45,191.45,0,0,0-84.74-14.68C765.06,559.61,726.2,575,696.71,610,680.43,629.37,671.06,652,666.47,677.68Z"/></g></svg>