<svg id="Capa_1" data-name="Capa 1" xmlns="http://www.w3.org/2000/svg" viewBox="0 0 1200 1200"><defs><style>.cls-1{fill:#8c8b8b;}</style></defs><title>seguridad</title><path class="cls-1" d="M974.85,502.05c0,49.24-.59,98.48.16,147.71,1,63-17.19,120.11-50.79,172.77-34,53.32-78.47,96.88-128.27,135.19a813,813,0,0,1-191.73,110.17,11.31,11.31,0,0,1-7.77.23C492.9,1025.09,399.79,966.41,323,883.8c-36.64-39.42-65.64-83.8-83-135.19a283.17,283.17,0,0,1-14.95-91.05q.06-165-.12-329.94c0-5.12,1.82-7.46,6.12-9.65Q382.59,240.88,534,163.56c19.74-10.07,39.54-20,59.14-30.32,4.84-2.55,8.61-2.61,13.56-.08Q745.76,204.4,885,275.28c28.08,14.33,56.1,28.8,84.27,43,4.22,2.11,5.67,4.53,5.65,9.25Q974.7,414.78,974.85,502.05Zm-28.23,5.56q0-81.53.07-163c0-4-.8-6.48-4.79-8.51Q774.16,250.68,606.61,164.94c-4.61-2.36-8.14-2.63-12.93-.18q-167.8,85.92-335.86,171.38c-4.52,2.3-4.52,5.36-4.52,9.29q.06,157.29.06,314.59a250,250,0,0,0,14.89,83.92c18.39,51.86,49.43,95.56,87.83,134.22,69,69.44,150.23,120.57,239.84,158.95,2.63,1.13,6.69.6,9.49-.57,59.91-25,115.52-57.52,167.4-96.41,48.4-36.26,91.8-77.52,125.08-128.53C929,763.93,947,712.21,946.68,654.67,946.4,605.65,946.62,556.63,946.62,507.61Z"/><path class="cls-1" d="M599.56,805.86H489c-13.06,0-17.88-4.72-17.88-17.57q0-102.25,0-204.51c0-12.4,5-17.39,17.42-17.4q111.19,0,222.41,0c13.28,0,17.89,4.75,17.89,18.2q0,101.61,0,203.23c0,13.35-4.72,18-18.07,18Zm.63-166.65a28.67,28.67,0,0,0-27.56,19A28.18,28.18,0,0,0,581,690.05c3.73,3,5.11,6.16,4.91,10.79-.32,7.44-.16,14.9-.06,22.35.12,9.49,6.32,16.2,14.59,16,8-.23,13.62-6.84,13.74-16.17.09-7.24.27-14.49-.06-21.72-.23-4.83,1.06-8.1,5.06-11.33,9.44-7.64,12.34-20.59,8.1-31.89A28.7,28.7,0,0,0,600.19,639.21Z"/><path class="cls-1" d="M593.35,203.21l13.23,24.89c-11.08,5.91-21.71,11.6-32.37,17.25Q448.54,311.89,322.8,378.29c-4.43,2.34-5.23,5.18-5.23,9.6q.15,130.76.07,261.51V658H289.77c-.12-2.33-.34-4.59-.34-6.85q0-140.67-.15-281.33c0-4.66,1.81-6.71,5.57-8.7q131.67-69.56,263.23-139.29C569.55,215.75,581,209.71,593.35,203.21Z"/><path class="cls-1" d="M882.32,372.91h27.87c.12,2.27.34,4.5.34,6.74,0,93.13.18,186.27,0,279.41-.12,51.14-17.61,96.8-46.06,138.59-8.71,12.79-18.47,24.87-27.51,37l-20.6-21c.85-1,2.66-3.28,4.49-5.5,27.21-33,48.84-68.9,57.18-111.39a227.09,227.09,0,0,0,4.16-42.5c.36-90.79.18-181.58.18-272.38Z"/><path class="cls-1" d="M691.56,551.63H664.1c-.12-2.51-.33-4.76-.33-7,0-19.18.05-38.36,0-57.53-.15-36.05-28.32-64.69-63.67-64.84-35.19-.15-63.64,28.61-63.84,64.65-.11,19.18,0,38.36,0,57.54v7.23H509.13c-.45-.67-.87-1-.87-1.34.27-26.18-1.63-52.61,1.35-78.49,5.41-47.08,49.56-81.11,97-77.58s84.89,42.95,85.36,90c.21,20.67,0,41.35,0,62C692,547.92,691.72,549.57,691.56,551.63Z"/></svg>